<svg width="232" height="40" viewBox="0 0 232 40" fill="none" xmlns="http://www.w3.org/2000/svg">
<path d="M10.24 34V7.84H0.16V6H22.36V7.84H12.28V34H10.24ZM65.5994 34.2C63.5194 34.2 61.546 33.8533 59.6794 33.16C57.8394 32.44 56.4127 31.52 55.3994 30.4L56.3194 28.88C57.2794 29.8667 58.586 30.7067 60.2394 31.4C61.9194 32.0667 63.6927 32.4 65.5594 32.4C67.426 32.4 68.946 32.16 70.1194 31.68C71.3194 31.1733 72.1994 30.5067 72.7594 29.68C73.346 28.8533 73.6394 27.9333 73.6394 26.92C73.6394 25.72 73.3194 24.76 72.6794 24.04C72.0394 23.32 71.1994 22.7467 70.1594 22.32C69.1194 21.8933 67.986 21.5333 66.7594 21.24C65.5327 20.9467 64.2927 20.64 63.0394 20.32C61.786 19.9733 60.6394 19.5333 59.5994 19C58.5594 18.4667 57.7194 17.7467 57.0794 16.84C56.466 15.9067 56.1594 14.7067 56.1594 13.24C56.1594 11.9067 56.506 10.68 57.1994 9.56C57.8927 8.44 58.9727 7.53333 60.4394 6.84C61.906 6.14667 63.786 5.8 66.0794 5.8C67.626 5.8 69.146 6.02667 70.6394 6.48C72.1594 6.93333 73.4527 7.54667 74.5194 8.32L73.7594 9.96C72.586 9.16 71.3194 8.57333 69.9594 8.2C68.626 7.8 67.3327 7.6 66.0794 7.6C64.2927 7.6 62.8127 7.85333 61.6394 8.36C60.466 8.86667 59.5994 9.54667 59.0394 10.4C58.4794 11.2267 58.1994 12.16 58.1994 13.2C58.1994 14.4 58.506 15.36 59.1194 16.08C59.7594 16.8 60.5994 17.3733 61.6394 17.8C62.6794 18.2267 63.826 18.5867 65.0794 18.88C66.3327 19.1733 67.5727 19.4933 68.7994 19.84C70.026 20.16 71.1594 20.5867 72.1994 21.12C73.2394 21.6533 74.0794 22.3733 74.7194 23.28C75.3594 24.1867 75.6794 25.36 75.6794 26.8C75.6794 28.1067 75.3194 29.3333 74.5994 30.48C73.8794 31.6 72.7727 32.5067 71.2794 33.2C69.8127 33.8667 67.9194 34.2 65.5994 34.2ZM87.5838 34V7.84H77.5038V6H99.7038V7.84H89.6238V34H87.5838ZM111.246 34V23.84L111.726 25.16L99.9656 6H102.206L112.886 23.4H111.766L122.446 6H124.566L112.806 25.16L113.286 23.84V34H111.246ZM146.239 34.2C144.479 34.2 142.906 33.9067 141.519 33.32C140.159 32.7333 139.079 31.92 138.279 30.88C137.506 29.8133 137.119 28.5867 137.119 27.2C137.119 26.0533 137.372 25 137.879 24.04C138.386 23.0533 139.212 22.08 140.359 21.12C141.532 20.1333 143.092 19.0933 145.039 18C146.746 17.0133 148.092 16.16 149.079 15.44C150.066 14.72 150.759 14.0267 151.159 13.36C151.559 12.6933 151.759 11.9733 151.759 11.2C151.759 10.0533 151.372 9.13333 150.599 8.44C149.852 7.74667 148.772 7.4 147.359 7.4C145.866 7.4 144.692 7.78667 143.839 8.56C143.012 9.30667 142.599 10.3067 142.599 11.56C142.599 12.1467 142.692 12.7067 142.879 13.24C143.066 13.7733 143.399 14.3733 143.879 15.04C144.386 15.68 145.079 16.48 145.959 17.44L160.799 33.08L159.599 34.4L144.319 18.32C143.386 17.3333 142.652 16.4667 142.119 15.72C141.586 14.9733 141.212 14.28 140.999 13.64C140.812 12.9733 140.719 12.28 140.719 11.56C140.719 10.4133 140.986 9.41333 141.519 8.56C142.079 7.70667 142.852 7.04 143.839 6.56C144.852 6.08 146.026 5.84 147.359 5.84C148.612 5.84 149.692 6.05333 150.599 6.48C151.532 6.90667 152.252 7.52 152.759 8.32C153.266 9.09333 153.519 10.04 153.519 11.16C153.519 12.1467 153.279 13.0667 152.799 13.92C152.346 14.7467 151.572 15.5867 150.479 16.44C149.386 17.2667 147.892 18.2133 145.999 19.28C144.239 20.2933 142.852 21.2133 141.839 22.04C140.826 22.8667 140.106 23.68 139.679 24.48C139.279 25.2533 139.079 26.1067 139.079 27.04C139.079 28.1333 139.386 29.0933 139.999 29.92C140.612 30.7467 141.452 31.3867 142.519 31.84C143.612 32.2933 144.879 32.52 146.319 32.52C148.239 32.52 149.946 32.1333 151.439 31.36C152.932 30.56 154.186 29.36 155.199 27.76C156.212 26.16 156.946 24.1467 157.399 21.72L159.039 22.24C158.532 24.88 157.692 27.0933 156.519 28.88C155.346 30.64 153.892 31.9733 152.159 32.88C150.426 33.76 148.452 34.2 146.239 34.2ZM178.203 19.8H193.363V21.64H178.203V19.8ZM178.443 34H176.403V6H195.123V7.84H178.443V34ZM201.638 34V6H203.678V34H201.638ZM218.795 34V7.84H208.715V6H230.915V7.84H220.835V34H218.795Z" fill="#3D550C"/>
<path fill-rule="evenodd" clip-rule="evenodd" d="M46.2572 27.7983L37.3503 4L29 27.7983L31.0617 28.2306C35.3926 29.1387 39.8647 29.1387 44.1955 28.2306L46.2572 27.7983ZM32.576 25.7115C32.8599 25.8294 33.329 25.3494 33.6236 24.6395C33.9183 23.9296 33.9269 23.2586 33.643 23.1407C33.359 23.0229 32.8899 23.5028 32.5953 24.2127C32.3007 24.9226 32.292 25.5936 32.576 25.7115ZM41.4594 24.6395C41.7541 25.3494 42.2231 25.8294 42.5071 25.7115C42.7911 25.5936 42.7824 24.9226 42.4877 24.2127C42.1931 23.5028 41.724 23.0229 41.4401 23.1407C41.1561 23.2586 41.1648 23.9296 41.4594 24.6395ZM37.629 26.2674C37.3216 26.2674 37.0723 25.6443 37.0723 24.8757C37.0723 24.1071 37.3216 23.484 37.629 23.484C37.9365 23.484 38.1857 24.1071 38.1857 24.8757C38.1857 25.6443 37.9365 26.2674 37.629 26.2674Z" fill="#3D550C"/>
<path d="M28.4651 30L27 34L34.7081 34.7174C36.7276 34.9054 38.7604 34.9009 40.779 34.7041L48 34L46.5349 30L42.985 30.6057C39.5149 31.1979 35.9709 31.2133 32.4958 30.6516L28.4651 30Z" fill="#3D550C" stroke="#3D550C"/>
</svg>
